# AST/ASF file generated using VICON BodyLanguage
# -----------------------------------------------
:version 1.10
:name VICON
:units
  mass 1.0
  length 0.45
  angle deg
:documentation
   .ast/.asf automatically generated from VICON data using
   VICON BodyBuilder and BodyLanguage model FoxedUp or BRILLIANT.MOD
:root
   order TX TY TZ RX RY RZ
   axis XYZ
   position 0 0 0  
   orientation 0 0 0 
:bonedata
  begin
     id 1 
     name lhipjoint
     direction 0.57768 -0.667037 0.470475 
     length 2.36008 
     axis 0 0 0  XYZ
  end
  begin
     id 2 
     name lfemur
     direction 0.34202 -0.939693 0  
     length 6.97235  
     axis 0 0 20  XYZ
    dof rx ry rz
    limits (-160.0 20.0)
           (-70.0 70.0)
           (-60.0 70.0)
  end
  begin
     id 3 
     name ltibia
     direction 0.34202 -0.939693 0   
     length 6.93428   
     axis 0 0 20   XYZ
    dof rx
    limits (-10.0 170.0)
  end
  begin
     id 4 
     name lfoot
     direction 0.133018 -0.365463 0.921272   
     length 2.18603   
     axis -90 7.62852e-016 20   XYZ
    dof rx rz
    limits (-45.0 90.0)
           (-70.0 20.0)
  end
  begin
     id 5 
     name ltoes
     direction 1.53519e-011 -4.22055e-011 1   
     length 1.07924   
     axis -90 7.62852e-016 20   XYZ
    dof rx
    limits (-90.0 20.0)
  end
  begin
     id 6 
     name rhipjoint
     direction -0.577712 -0.667019 0.470462   
     length 2.36015  
     axis 0 0 0  XYZ 
  end
  begin
     id 7 
     name rfemur
     direction -0.34202 -0.939693 0   
     length 6.71195   
     axis 0 0 -20   XYZ
    dof rx ry rz
    limits (-160.0 20.0)
           (-70.0 70.0)
           (-70.0 60.0)
  end
  begin
     id 8 
     name rtibia
     direction -0.34202 -0.939693 0   
     length 7.04592   
     axis 0 0 -20   XYZ
    dof rx
    limits (-10.0 170.0)
 end
 begin
     id 9 
     name rfoot
     direction -0.113796 -0.312651 0.943027   
     length 2.03846  
     axis -90 -7.62852e-016 -20   XYZ
    dof rx rz
    limits (-45.0 90.0)
           (-20.0 70.0)
  end
  begin
     id 10 
     name rtoes
     direction -1.53586e-011 -4.218e-011 1   
     length 1.01562   
     axis -90 -7.62852e-016 -20   XYZ
    dof rx
    limits (-90.0 20.0)
  end
  begin
     id 11 
     name lowerback
     direction -0.0417299 0.991937 -0.119667   
     length 2.05257   
     axis 0 0 0   XYZ
    dof rx ry rz
    limits (-20.0 45.0)
           (-30.0 30.0)
           (-30.0 30.0)
  end
  begin
     id 12 
     name upperback
     direction -0.00017666 0.999999 0.00105178   
     length 2.05693   
     axis 0 0 0   XYZ
    dof rx ry rz
    limits (-20.0 45.0)
           (-30.0 30.0)
           (-30.0 30.0)
  end
  begin
     id 13 
     name thorax
     direction 0.0185169 0.998203 0.0569866   
     length 2.0932   
     axis 0 0 0   XYZ
    dof rx ry rz
    limits (-20.0 45.0)
           (-30.0 30.0)
           (-30.0 30.0)
  end
  begin
     id 14 
     name lowerneck
     direction -0.0212406 0.982645 0.184277   
     length 1.72509   
     axis 0 0 0   XYZ
    dof rx ry rz
    limits (-20.0 45.0)
           (-30.0 30.0)
           (-30.0 30.0)
  end
  begin
     id 15 
     name upperneck
     direction 0.00528579 0.965323 -0.261004   
     length 1.76294   
     axis 0 0 0   XYZ
    dof rx ry rz
    limits (-20.0 45.0)
           (-30.0 30.0)
           (-30.0 30.0)
  end
  begin
     id 16
     name head
     direction 0.00695421 0.994078 -0.108445  
     length 1.78678  
     axis 0 0 0   XYZ
    dof rx ry rz
    limits (-20.0 45.0)
           (-30.0 30.0)
           (-30.0 30.0)
  end
  begin
     id 17 
     name lclavicle
     direction 0.97277 0.211305 -0.095232  
     length 3.84823  
     axis 0 0 0   XYZ
    dof ry rz
    limits (-20.0 10.0)
           (0.0 20.0)
  end
  begin
     id 18 
     name lhumerus
     direction 1 -4.48957e-011 -1.98313e-027   
     length 4.97185   
     axis 180 -30 -90   XYZ
    dof rx ry rz
    limits (-60.0 90.0)
           (-90.0 90.0)
           (-90.0 90.0)
  end
  begin
     id 19
     name lradius
     direction 1 -4.4898e-011 7.31063e-027   
     length 3.35811   
     axis 180 -30 -90   XYZ
    dof rx
    limits (-10.0 170.0)
  end
  begin
     id 20
     name lwrist
     direction 1 -4.48938e-011 9.95048e-027   
     length 1.67905   
     axis -8.75986e-015 90 90   XYZ
    dof ry
    limits (-180.0 0.0)
 end
  begin
     id 21 
     name lhand
     direction 1 -4.4901e-011 1.9901e-026   
     length 0.622776   
     axis -1.26985e-014 90 90   XYZ
    dof rx rz
    limits (-90.0 90.0)
           (-45.0 45.0)
  end
  begin
     id 22 
     name lfingers
     direction 1 -4.48961e-011 3.98019e-026   
     length 0.502098   
     axis -2.5397e-014 90 90   XYZ
    dof rx
    limits (0.0 90.0)
  end
  begin
     id 23
     name lthumb
     direction 0.707107 -6.34933e-011 0.707107   
     length 0.720915   
     axis -90 45 2.85299e-015   XYZ
    dof rx rz
    limits (-45.0 45.0)
           (-45.0 45.0)
  end
  begin
     id 24 
     name rclavicle
     direction -0.990867 0.133739 -0.0172226   
     length 3.78845  
     axis 0 0 0   XYZ 
    dof ry rz
    limits (-10.0 20.0)
           (-20.0 0.0)
  end
  begin
     id 25 
     name rhumerus
     direction -1 -4.48972e-011 -1.99267e-027  
     length 4.96493   
     axis 180 30 90   XYZ
    dof rx ry rz
    limits (-90.0 60.0)
           (-90.0 90.0)
           (-90.0 90.0)
  end
  begin
     id 26 
     name rradius
     direction -1 -4.48969e-011 8.96093e-027   
     length 3.34929   
     axis 180 30 90   XYZ
    dof rx
    limits (-10.0 170.0)
  end
  begin
     id 27 
     name rwrist
     direction -1 -4.48953e-011 9.95048e-027   
     length 1.67464   
     axis -8.75986e-015 -90 -90   XYZ
    dof ry
    limits (-180.0 0.0)
  end
  begin
     id 28
     name rhand
     direction -1 -4.49001e-011 1.9901e-026   
     length 0.638041   
     axis -1.26985e-014 -90 -90   XYZ
    dof rx rz
    limits (-90.0 90.0)
           (-45.0 45.0)
  end
  begin
     id 29
     name rfingers
     direction -1 -4.48967e-011 3.98019e-026   
     length 0.514405   
     axis -2.5397e-014 -90 -90   XYZ
    dof rx
    limits (0.0 90.0)
  end
  begin
     id 30
     name rthumb
     direction -0.707107 -6.34904e-011 0.707107   
     length 0.738586   
     axis -90 -45 -2.85299e-015   XYZ
    dof rx rz
    limits (-45.0 45.0)
           (-45.0 45.0)
  end
:hierarchy
  begin
    root lhipjoint rhipjoint lowerback
    lhipjoint lfemur
    lfemur ltibia
    ltibia lfoot
    lfoot ltoes
    rhipjoint rfemur
    rfemur rtibia
    rtibia rfoot
    rfoot rtoes
    lowerback upperback
    upperback thorax
    thorax lowerneck lclavicle rclavicle
    lowerneck upperneck
    upperneck head
    lclavicle lhumerus
    lhumerus lradius
    lradius lwrist
    lwrist lhand lthumb
    lhand lfingers
    rclavicle rhumerus
    rhumerus rradius
    rradius rwrist
    rwrist rhand rthumb
    rhand rfingers
  end

#!OML:ASF E:\Mandelcareful walks\Project 1\Capture day 1\Session 1\Subject1.ASF
:FULLY-SPECIFIED
:DEGREES
205
root -3.3161 13.4374 -2.45152 189.395 66.9936 170.845
lowerback 44.0559 1.21955 1.12644
upperback 11.9104 3.92211 -4.76874
thorax -6.91834 2.99429 -7.43983
lowerneck -30.8715 4.59771 0.0874319
upperneck 27.39 8.78533 -5.52364
head 14.9717 2.91296 -0.411686
rclavicle 3.18055e-015 -5.64548e-014
rhumerus 22.3518 13.5419 -71.1338
rradius 49.4896
rwrist -13.8719
rhand -13.1159 -31.448
rfingers 7.12502
rthumb 12.9815 -61.0242
lclavicle 3.18055e-015 -5.64548e-014
lhumerus 8.45268 -18.2699 65.4219
lradius 51.5363
lwrist 19.1985
lhand -28.4643 -15.5611
lfingers 7.12502
lthumb -1.8343 14.4107
rfemur -53.4627 -40.4733 3.43581
rtibia 85.7985
rfoot -25.0971 -3.12766
rtoes -20.6442
lfemur -73.4507 3.68784 -24.4547
ltibia 86.9626
lfoot -26.9588 -2.84011
ltoes 0.903772
206
root -3.32699 13.3897 -2.51439 190.17 67.6126 171.331
lowerback 43.7532 1.31871 0.868083
upperback 12.0088 3.92968 -4.66345
thorax -6.73714 2.98712 -7.17218
lowerneck -31.3054 3.35646 -0.99849
upperneck 27.0556 6.88982 -3.92564
head 14.7045 2.23989 0.0159734
rclavicle -3.57812e-014 2.78299e-015
rhumerus 23.0547 14.3111 -70.2115
rradius 49.8463
rwrist -14.0476
rhand -19.753 -29.1194
rfingers 7.12502
rthumb 6.57829 -58.9973
lclavicle -3.57812e-014 2.78299e-015
lhumerus 8.40864 -17.7755 65.3697
lradius 51.753
lwrist 19.7308
lhand -28.6327 -15.3104
lfingers 7.12502
lthumb -1.99699 14.66
rfemur -54.4141 -40.3747 3.58201
rtibia 86.2573
rfoot -24.6947 -2.56772
rtoes -21.2201
lfemur -74.1298 3.83573 -24.4591
ltibia 87.7043
lfoot -27.4924 -2.4492
ltoes 0.931178
207
root -3.33695 13.3421 -2.58451 190.533 67.9207 171.559
lowerback 43.5295 1.16389 0.732523
upperback 12.1884 3.71897 -4.48441
thorax -6.50917 2.88992 -6.80051
lowerneck -31.7294 1.98184 -2.23541
upperneck 26.8057 4.85041 -2.10264
head 14.5305 1.52339 0.535033
rclavicle -1.51076e-014 -4.85035e-014
rhumerus 23.7434 14.8674 -69.4398
rradius 50.3411
rwrist -13.8664
rhand -14.0641 -30.3307
rfingers 7.12502
rthumb 12.0673 -59.9627
lclavicle -1.51076e-014 -4.85035e-014
lhumerus 8.4295 -17.0994 65.4209
lradius 51.7792
lwrist 20.0155
lhand -28.7766 -14.8194
lfingers 7.12502
lthumb -2.136 15.1497
rfemur -54.8447 -40.6619 3.3509
rtibia 86.621
rfoot -24.272 -1.9341
rtoes -22.0407
lfemur -74.5591 3.48777 -24.4942
ltibia 88.423
lfoot -28.0569 -1.85536
ltoes 1.03408
208
root -3.34669 13.2914 -2.64777 191.409 68.2134 172.312
lowerback 43.1839 0.991538 0.661294
upperback 12.3067 3.49935 -4.17486
thorax -6.31807 2.77048 -6.31762
lowerneck -31.6741 0.550055 -3.6315
upperneck 26.4231 2.7281 -0.00522069
head 14.2825 0.807062 1.17384
rclavicle 3.49861e-014 9.54166e-015
rhumerus 24.3159 15.2438 -68.8879
rradius 50.8569
rwrist -13.3475
rhand -16.6342 -29.0732
rfingers 7.12502
rthumb 9.58833 -58.835
lclavicle 3.49861e-014 9.54166e-015
lhumerus 8.21506 -16.43 65.4443
lradius 51.812
lwrist 20.3289
lhand -28.9315 -14.4861
lfingers 7.12502
lthumb -2.28558 15.4814
rfemur -55.4178 -40.8338 3.50806
rtibia 86.9462
rfoot -23.9541 -1.59294
rtoes -22.8447
lfemur -75.0967 3.1883 -24.2933
ltibia 89.1257
lfoot -28.49 -1.23522
ltoes 1.04186
209
root -3.36777 13.2521 -2.69686 193.006 69.0385 173.78
lowerback 43.0728 1.23094 1.10843
upperback 12.3525 3.94081 -4.26461
thorax -6.17147 2.98322 -6.81114
lowerneck -31.5101 -1.12406 -3.93185
upperneck 25.8322 -0.246095 2.05904
head 14.0593 -0.16549 1.44338
rclavicle -3.49861e-014 -6.99722e-014
rhumerus 24.1754 13.9914 -69.0117
rradius 51.5067
rwrist -13.0116
rhand -15.9067 -28.8748
rfingers 7.12502
rthumb 10.2901 -58.6031
lclavicle -3.49861e-014 -6.99722e-014
lhumerus 8.94624 -17.4381 64.606
lradius 51.8387
lwrist 20.7951
lhand -29.2055 -14.3878
lfingers 7.12502
lthumb -2.55014 15.5767
rfemur -56.4935 -40.2067 4.29057
rtibia 87.1866
rfoot -23.7052 -1.62205
rtoes -23.1378
lfemur -75.7523 3.59738 -23.899
ltibia 89.7839
lfoot -28.8523 -0.766304
ltoes 0.652824
210
root -3.40405 13.2208 -2.76824 191.89 69.7823 172.3
lowerback 43.1388 1.19206 0.933166
upperback 12.3579 3.78987 -4.48875
thorax -6.19681 2.91459 -6.90612
lowerneck -31.1445 -2.53646 -4.20051
upperneck 25.0556 -2.68421 3.69246
head 13.7835 -0.988215 1.63897
rclavicle -2.14687e-014 7.4743e-014
rhumerus 23.9078 13.8071 -68.8848
rradius 52.6088
rwrist -14.2855
rhand -15.1555 -29.8491
rfingers 7.12502
rthumb 11.0147 -59.5402
lclavicle -2.14687e-014 7.4743e-014
lhumerus 9.36275 -17.7189 64.0837
lradius 51.6684
lwrist 20.8734
lhand -29.3502 -14.3973
lfingers 7.12502
lthumb -2.68988 15.5655
rfemur -57.3561 -40.3928 3.72807
rtibia 87.2995
rfoot -23.4477 -1.10426
rtoes -23.1493
lfemur -76.2031 3.2874 -24.6864
ltibia 90.2803
lfoot -29.3978 0.0411619
ltoes 0.321379
211
root -3.4295 13.1846 -2.83295 192.353 70.416 172.696
lowerback 42.9892 0.880275 0.30176
upperback 12.4223 3.18358 -3.84566
thorax -6.18518 2.57658 -5.63337
lowerneck -30.513 -3.3817 -5.70056
upperneck 24.2604 -3.61341 5.0026
head 13.4419 -1.35285 2.21219
rclavicle -1.13705e-013 1.10922e-013
rhumerus 25.0582 14.85 -67.8074
rradius 53.2514
rwrist -12.7793
rhand -9.74769 -31.21
rfingers 7.12502
rthumb 16.2266 -60.5509
lclavicle -1.13705e-013 1.10922e-013
lhumerus 8.46158 -15.6753 64.7383
lradius 51.3873
lwrist 20.4309
lhand -29.1422 -14.4227
lfingers 7.12502
lthumb -2.48899 15.5425
rfemur -57.8255 -40.292 3.86076
rtibia 87.3131
rfoot -23.5172 -0.813812
rtoes -22.9158
lfemur -76.6008 3.23177 -24.7241
ltibia 90.8284
lfoot -29.8012 0.668834
ltoes 0.339048
